<svg width="20" height="20" viewBox="0 0 20 20" fill="none" xmlns="http://www.w3.org/2000/svg">
<path fill-rule="evenodd" clip-rule="evenodd" d="M12.9315 7.43068C12.9057 7.33264 12.8848 7.23264 12.869 7.13096C11.4327 6.90779 10.3333 5.66561 10.3333 4.16667C10.3333 3.55029 10.5192 2.97734 10.838 2.50079C10.5764 2.5 10.2977 2.5 10 2.5C7.67029 2.5 6.50544 2.5 5.58658 2.8806C4.36144 3.38807 3.38807 4.36144 2.8806 5.58658C2.5 6.50544 2.5 7.67029 2.5 10V12.5C2.5 14.857 2.5 16.0355 3.23223 16.7678C3.96447 17.5 5.14298 17.5 7.5 17.5H10C12.3297 17.5 13.4946 17.5 14.4134 17.1194C15.6386 16.6119 16.6119 15.6386 17.1194 14.4134C17.5 13.4946 17.5 12.3297 17.5 10C17.5 9.70229 17.5 9.4236 17.4992 9.16201C17.0227 9.48078 16.4497 9.66667 15.8333 9.66667C14.8799 9.66667 14.0304 9.22192 13.4809 8.52858C13.39 8.98726 12.9854 9.33305 12.5 9.33305H7.5C6.94772 9.33305 6.5 8.88534 6.5 8.33305C6.5 7.78077 6.94772 7.33305 7.5 7.33305H12.5C12.6545 7.33305 12.8009 7.3681 12.9315 7.43068ZM7.5 10.6664C6.94772 10.6664 6.5 11.1141 6.5 11.6664C6.5 12.2187 6.94772 12.6664 7.5 12.6664H10C10.5523 12.6664 11 12.2187 11 11.6664C11 11.1141 10.5523 10.6664 10 10.6664H7.5Z" fill="white"/>
<path d="M15.8333 6.6665L15.8333 1.6665M13.3333 4.1665H18.3333" stroke="white" stroke-width="2" stroke-linecap="round" stroke-linejoin="round"/>
</svg>
