<svg width="80" height="93" viewBox="0 0 80 93" fill="none" xmlns="http://www.w3.org/2000/svg">
<path d="M5.888 7.8V7.096H22.912C34.2613 7.096 40.0213 7.13866 40.192 7.224C40.448 7.352 40.6187 7.544 40.704 7.8C40.9173 8.14133 40.96 8.952 40.832 10.232C40.832 10.4027 40.8107 10.5093 40.768 10.552L28.864 28.472L17.024 46.072L20.352 46.136C22.8693 46.136 24.32 46.1147 24.704 46.072C28.544 45.816 31.3813 44.7067 33.216 42.744C33.8987 42.0613 34.4747 41.2293 34.944 40.248C35.7547 38.5413 36.3307 35.7253 36.672 31.8V31.224H38.976H41.28V31.736C41.1947 32.0773 41.0027 35.192 40.704 41.08C40.4053 46.968 40.2133 50.104 40.128 50.488V51H22.592C10.9013 51 4.97067 50.9573 4.8 50.872C4.37333 50.7013 4.13867 50.3387 4.096 49.784C4.096 49.5707 4.096 49.2507 4.096 48.824C4.096 47.928 4.11733 47.4373 4.16 47.352C4.288 47.1387 8.27733 41.1653 16.128 29.432L27.968 11.704H24.96C22.144 11.704 20.16 11.8107 19.008 12.024C16.448 12.4507 14.4213 13.4107 12.928 14.904C11.0933 16.7813 10.0267 19.6613 9.728 23.544V24.12H7.424H5.12V23.416L5.504 15.608C5.76 10.4453 5.888 7.84267 5.888 7.8Z" fill="#08448B"/>
<path d="M0 59H44.992V62.2H0V59Z" fill="#08448B"/>
<path d="M35.6137 76.8831L36.3875 31.0715L44.7535 31.2128L64.1972 60.3831L64.5328 60.3887L65.0198 31.5551L74.7056 31.7187L73.9318 77.5304L65.4315 77.3868L46.144 48.2416L45.7414 48.2348L45.2547 77.046L35.6137 76.8831Z" fill="#08448B"/>
</svg>
